<?xml version="1.0" encoding="UTF-8" standalone="no"?><svg xmlns="http://www.w3.org/2000/svg" xmlns:xlink="http://www.w3.org/1999/xlink" contentStyleType="text/css" height="548px" preserveAspectRatio="none" style="width:940px;height:548px;background:#FFFFFF;" version="1.1" viewBox="0 0 940 548" width="940px" zoomAndPan="magnify"><defs/><g><!--class TurnstileData--><g id="elem_TurnstileData"><rect codeLine="2" fill="#F1F1F1" height="96.8906" id="TurnstileData" rx="2.5" ry="2.5" style="stroke:#181818;stroke-width:0.5;" width="128" x="226.5" y="432"/><ellipse cx="241.5" cy="448" fill="#ADD1B2" rx="11" ry="11" style="stroke:#181818;stroke-width:1.0;"/><path d="M244.4844,453.6406 Q243.9063,453.9375 243.2656,454.0781 Q242.625,454.2344 241.9219,454.2344 Q239.4063,454.2344 238.0781,452.5938 Q236.7656,450.9375 236.7656,447.8125 Q236.7656,444.6719 238.0781,443.0313 Q239.4063,441.375 241.9219,441.375 Q242.625,441.375 243.2656,441.5313 Q243.9219,441.6719 244.4844,441.9688 L244.4844,444.6875 Q243.8438,444.1094 243.25,443.8438 Q242.6563,443.5781 242.0313,443.5781 Q240.6875,443.5781 240,444.6406 Q239.3125,445.7031 239.3125,447.8125 Q239.3125,449.9063 240,450.9844 Q240.6875,452.0469 242.0313,452.0469 Q242.6563,452.0469 243.25,451.7813 Q243.8438,451.5 244.4844,450.9219 L244.4844,453.6406 Z " fill="#000000"/><text fill="#000000" font-family="sans-serif" font-size="14" lengthAdjust="spacing" textLength="96" x="255.5" y="452.8467">TurnstileData</text><line style="stroke:#181818;stroke-width:0.5;" x1="227.5" x2="353.5" y1="464" y2="464"/><text fill="#000000" font-family="sans-serif" font-size="14" lengthAdjust="spacing" textLength="57" x="232.5" y="480.9951">id: Long</text><text fill="#000000" font-family="sans-serif" font-size="14" lengthAdjust="spacing" textLength="115" x="232.5" y="497.292">locked: Boolean</text><text fill="#000000" font-family="sans-serif" font-size="14" lengthAdjust="spacing" textLength="115" x="232.5" y="513.5889">message: String</text><line style="stroke:#181818;stroke-width:0.5;" x1="227.5" x2="353.5" y1="520.8906" y2="520.8906"/></g><!--class TurnstileContext--><g id="elem_TurnstileContext"><rect codeLine="8" fill="#F1F1F1" height="129.4844" id="TurnstileContext" rx="2.5" ry="2.5" style="stroke:#181818;stroke-width:0.5;" width="209" x="136" y="214"/><ellipse cx="178" cy="230" fill="#B4A7E5" rx="11" ry="11" style="stroke:#181818;stroke-width:1.0;"/><path d="M173.9219,225.75 L173.9219,223.5938 L181.3125,223.5938 L181.3125,225.75 L178.8438,225.75 L178.8438,233.8438 L181.3125,233.8438 L181.3125,236 L173.9219,236 L173.9219,233.8438 L176.3906,233.8438 L176.3906,225.75 L173.9219,225.75 Z " fill="#000000"/><text fill="#000000" font-family="sans-serif" font-size="14" font-style="italic" lengthAdjust="spacing" textLength="117" x="198" y="234.8467">TurnstileContext</text><line style="stroke:#181818;stroke-width:0.5;" x1="137" x2="344" y1="246" y2="246"/><text fill="#000000" font-family="sans-serif" font-size="14" lengthAdjust="spacing" textLength="197" x="142" y="262.9951">currentState: TurnstileState</text><line style="stroke:#181818;stroke-width:0.5;" x1="137" x2="344" y1="270.2969" y2="270.2969"/><text fill="#000000" font-family="sans-serif" font-size="14" lengthAdjust="spacing" textLength="157" x="142" y="287.292">alarm(): TurnstileData</text><text fill="#000000" font-family="sans-serif" font-size="14" lengthAdjust="spacing" textLength="144" x="142" y="303.5889">lock(): TurnstileData</text><text fill="#000000" font-family="sans-serif" font-size="14" lengthAdjust="spacing" textLength="162" x="142" y="319.8857">unlock(): TurnstileData</text><text fill="#000000" font-family="sans-serif" font-size="14" lengthAdjust="spacing" textLength="191" x="142" y="336.1826">returnCoin(): TurnstileData</text></g><!--class TurnstileFSM--><g id="elem_TurnstileFSM"><rect codeLine="18" fill="#F1F1F1" height="113.1875" id="TurnstileFSM" rx="2.5" ry="2.5" style="stroke:#181818;stroke-width:0.5;" width="295" x="7" y="23.5"/><ellipse cx="104.75" cy="39.5" fill="#ADD1B2" rx="11" ry="11" style="stroke:#181818;stroke-width:1.0;"/><path d="M107.7344,45.1406 Q107.1563,45.4375 106.5156,45.5781 Q105.875,45.7344 105.1719,45.7344 Q102.6563,45.7344 101.3281,44.0938 Q100.0156,42.4375 100.0156,39.3125 Q100.0156,36.1719 101.3281,34.5313 Q102.6563,32.875 105.1719,32.875 Q105.875,32.875 106.5156,33.0313 Q107.1719,33.1719 107.7344,33.4688 L107.7344,36.1875 Q107.0938,35.6094 106.5,35.3438 Q105.9063,35.0781 105.2813,35.0781 Q103.9375,35.0781 103.25,36.1406 Q102.5625,37.2031 102.5625,39.3125 Q102.5625,41.4063 103.25,42.4844 Q103.9375,43.5469 105.2813,43.5469 Q105.9063,43.5469 106.5,43.2813 Q107.0938,43 107.7344,42.4219 L107.7344,45.1406 Z " fill="#000000"/><text fill="#000000" font-family="sans-serif" font-size="14" lengthAdjust="spacing" textLength="91" x="125.25" y="44.3467">TurnstileFSM</text><line style="stroke:#181818;stroke-width:0.5;" x1="8" x2="301" y1="55.5" y2="55.5"/><line style="stroke:#181818;stroke-width:0.5;" x1="8" x2="301" y1="63.5" y2="63.5"/><text fill="#000000" font-family="sans-serif" font-size="14" lengthAdjust="spacing" textLength="246" x="13" y="80.4951">event(event: String): TurnstileData</text><text fill="#000000" font-family="sans-serif" font-size="14" lengthAdjust="spacing" textLength="145" x="13" y="96.792">coin(): TurnstileData</text><text fill="#000000" font-family="sans-serif" font-size="14" lengthAdjust="spacing" textLength="147" x="13" y="113.0889">pass(): TurnstileData</text><text fill="#000000" font-family="sans-serif" font-size="14" lengthAdjust="spacing" textLength="283" x="13" y="129.3857">allowed(event: TurnstileEvent): boolean</text></g><!--class TurnstilePersistentContext--><g id="elem_TurnstilePersistentContext"><rect codeLine="28" fill="#F1F1F1" height="48" id="TurnstilePersistentContext" rx="2.5" ry="2.5" style="stroke:#181818;stroke-width:0.5;" width="218" x="380.5" y="254.5"/><ellipse cx="395.5" cy="270.5" fill="#ADD1B2" rx="11" ry="11" style="stroke:#181818;stroke-width:1.0;"/><path d="M398.4844,276.1406 Q397.9063,276.4375 397.2656,276.5781 Q396.625,276.7344 395.9219,276.7344 Q393.4063,276.7344 392.0781,275.0938 Q390.7656,273.4375 390.7656,270.3125 Q390.7656,267.1719 392.0781,265.5313 Q393.4063,263.875 395.9219,263.875 Q396.625,263.875 397.2656,264.0313 Q397.9219,264.1719 398.4844,264.4688 L398.4844,267.1875 Q397.8438,266.6094 397.25,266.3438 Q396.6563,266.0781 396.0313,266.0781 Q394.6875,266.0781 394,267.1406 Q393.3125,268.2031 393.3125,270.3125 Q393.3125,272.4063 394,273.4844 Q394.6875,274.5469 396.0313,274.5469 Q396.6563,274.5469 397.25,274.2813 Q397.8438,274 398.4844,273.4219 L398.4844,276.1406 Z " fill="#000000"/><text fill="#000000" font-family="sans-serif" font-size="14" lengthAdjust="spacing" textLength="186" x="409.5" y="275.3467">TurnstilePersistentContext</text><line style="stroke:#181818;stroke-width:0.5;" x1="381.5" x2="597.5" y1="286.5" y2="286.5"/><line style="stroke:#181818;stroke-width:0.5;" x1="381.5" x2="597.5" y1="294.5" y2="294.5"/></g><!--class PagingAndSortingRepository--><g id="elem_PagingAndSortingRepository"><rect codeLine="33" fill="#F1F1F1" height="64.2969" id="PagingAndSortingRepository" rx="2.5" ry="2.5" style="stroke:#181818;stroke-width:0.5;" width="286" x="643.5" y="448.5"/><ellipse cx="669.3" cy="464.5" fill="#B4A7E5" rx="11" ry="11" style="stroke:#181818;stroke-width:1.0;"/><path d="M665.2219,460.25 L665.2219,458.0938 L672.6125,458.0938 L672.6125,460.25 L670.1438,460.25 L670.1438,468.3438 L672.6125,468.3438 L672.6125,470.5 L665.2219,470.5 L665.2219,468.3438 L667.6906,468.3438 L667.6906,460.25 L665.2219,460.25 Z " fill="#000000"/><text fill="#000000" font-family="sans-serif" font-size="14" font-style="italic" lengthAdjust="spacing" textLength="203" x="685.7" y="469.3467">PagingAndSortingRepository</text><rect fill="#FFFFFF" height="15.9688" style="stroke:#181818;stroke-width:1.0;stroke-dasharray:2.0,2.0;" width="25" x="907.5" y="445.5"/><text fill="#000000" font-family="sans-serif" font-size="12" font-style="italic" lengthAdjust="spacing" textLength="23" x="908.5" y="457.6387">T, K</text><line style="stroke:#181818;stroke-width:0.5;" x1="644.5" x2="928.5" y1="480.5" y2="480.5"/><line style="stroke:#181818;stroke-width:0.5;" x1="644.5" x2="928.5" y1="488.5" y2="488.5"/><text fill="#000000" font-family="sans-serif" font-size="14" lengthAdjust="spacing" textLength="274" x="649.5" y="505.4951">findAll(pageable: Pageable): Page&lt;T&gt;</text></g><!--class TurnstileEntity--><g id="elem_TurnstileEntity"><rect codeLine="37" fill="#F1F1F1" height="121.4531" id="TurnstileEntity" rx="2.5" ry="2.5" style="stroke:#181818;stroke-width:0.5;" width="168" x="405.5" y="420"/><ellipse cx="435.8" cy="440.1328" fill="#ADD1B2" rx="11" ry="11" style="stroke:#181818;stroke-width:1.0;"/><path d="M438.7844,445.7734 Q438.2063,446.0703 437.5656,446.2109 Q436.925,446.3672 436.2219,446.3672 Q433.7063,446.3672 432.3781,444.7266 Q431.0656,443.0703 431.0656,439.9453 Q431.0656,436.8047 432.3781,435.1641 Q433.7063,433.5078 436.2219,433.5078 Q436.925,433.5078 437.5656,433.6641 Q438.2219,433.8047 438.7844,434.1016 L438.7844,436.8203 Q438.1438,436.2422 437.55,435.9766 Q436.9563,435.7109 436.3313,435.7109 Q434.9875,435.7109 434.3,436.7734 Q433.6125,437.8359 433.6125,439.9453 Q433.6125,442.0391 434.3,443.1172 Q434.9875,444.1797 436.3313,444.1797 Q436.9563,444.1797 437.55,443.9141 Q438.1438,443.6328 438.7844,443.0547 L438.7844,445.7734 Z " fill="#000000"/><text fill="#000000" font-family="sans-serif" font-size="12" font-style="italic" lengthAdjust="spacing" textLength="49" x="479.7" y="436.1387">«entity»</text><text fill="#000000" font-family="sans-serif" font-size="14" lengthAdjust="spacing" textLength="102" x="453.2" y="451.9639">TurnstileEntity</text><line style="stroke:#181818;stroke-width:0.5;" x1="406.5" x2="572.5" y1="460.2656" y2="460.2656"/><text fill="#000000" font-family="sans-serif" font-size="14" lengthAdjust="spacing" textLength="57" x="411.5" y="477.2607">id: Long</text><text fill="#000000" font-family="sans-serif" font-size="14" lengthAdjust="spacing" textLength="115" x="411.5" y="493.5576">locked: Boolean</text><text fill="#000000" font-family="sans-serif" font-size="14" lengthAdjust="spacing" textLength="115" x="411.5" y="509.8545">message: String</text><line style="stroke:#181818;stroke-width:0.5;" x1="406.5" x2="572.5" y1="517.1563" y2="517.1563"/><text fill="#000000" font-family="sans-serif" font-size="14" lengthAdjust="spacing" textLength="156" x="411.5" y="534.1514">toInfo(): TurnstileData</text></g><!--class TurnstileRepository--><g id="elem_TurnstileRepository"><rect codeLine="44" fill="#F1F1F1" height="56.2656" id="TurnstileRepository" rx="2.5" ry="2.5" style="stroke:#181818;stroke-width:0.5;" width="170" x="701.5" y="250.5"/><ellipse cx="716.5" cy="270.6328" fill="#B4A7E5" rx="11" ry="11" style="stroke:#181818;stroke-width:1.0;"/><path d="M712.4219,266.3828 L712.4219,264.2266 L719.8125,264.2266 L719.8125,266.3828 L717.3438,266.3828 L717.3438,274.4766 L719.8125,274.4766 L719.8125,276.6328 L712.4219,276.6328 L712.4219,274.4766 L714.8906,274.4766 L714.8906,266.3828 L712.4219,266.3828 Z " fill="#000000"/><text fill="#000000" font-family="sans-serif" font-size="12" font-style="italic" lengthAdjust="spacing" textLength="74" x="762.5" y="266.6387">«repository»</text><text fill="#000000" font-family="sans-serif" font-size="14" font-style="italic" lengthAdjust="spacing" textLength="138" x="730.5" y="282.4639">TurnstileRepository</text><line style="stroke:#181818;stroke-width:0.5;" x1="702.5" x2="870.5" y1="290.7656" y2="290.7656"/><line style="stroke:#181818;stroke-width:0.5;" x1="702.5" x2="870.5" y1="298.7656" y2="298.7656"/></g><!--class TurnstileService--><g id="elem_TurnstileService"><rect codeLine="53" fill="#F1F1F1" height="145.7813" id="TurnstileService" rx="2.5" ry="2.5" style="stroke:#181818;stroke-width:0.5;" width="362" x="337.5" y="7"/><ellipse cx="456.75" cy="23" fill="#ADD1B2" rx="11" ry="11" style="stroke:#181818;stroke-width:1.0;"/><path d="M459.7344,28.6406 Q459.1563,28.9375 458.5156,29.0781 Q457.875,29.2344 457.1719,29.2344 Q454.6563,29.2344 453.3281,27.5938 Q452.0156,25.9375 452.0156,22.8125 Q452.0156,19.6719 453.3281,18.0313 Q454.6563,16.375 457.1719,16.375 Q457.875,16.375 458.5156,16.5313 Q459.1719,16.6719 459.7344,16.9688 L459.7344,19.6875 Q459.0938,19.1094 458.5,18.8438 Q457.9063,18.5781 457.2813,18.5781 Q455.9375,18.5781 455.25,19.6406 Q454.5625,20.7031 454.5625,22.8125 Q454.5625,24.9063 455.25,25.9844 Q455.9375,27.0469 457.2813,27.0469 Q457.9063,27.0469 458.5,26.7813 Q459.0938,26.5 459.7344,25.9219 L459.7344,28.6406 Z " fill="#000000"/><text fill="#000000" font-family="sans-serif" font-size="14" lengthAdjust="spacing" textLength="115" x="477.25" y="27.8467">TurnstileService</text><line style="stroke:#181818;stroke-width:0.5;" x1="338.5" x2="698.5" y1="39" y2="39"/><line style="stroke:#181818;stroke-width:0.5;" x1="338.5" x2="698.5" y1="47" y2="47"/><text fill="#000000" font-family="sans-serif" font-size="14" lengthAdjust="spacing" textLength="161" x="343.5" y="63.9951">create(): TurnstileData</text><text fill="#000000" font-family="sans-serif" font-size="14" lengthAdjust="spacing" textLength="195" x="343.5" y="80.292">get(id: Long): TurnstileData</text><text fill="#000000" font-family="sans-serif" font-size="14" lengthAdjust="spacing" textLength="336" x="343.5" y="96.5889">list(pageable: Pageable): Page&lt;TurnstileData&gt;</text><text fill="#000000" font-family="sans-serif" font-size="14" lengthAdjust="spacing" textLength="311" x="343.5" y="112.8857">event(id: Long, event: String): TurnstileData</text><text fill="#000000" font-family="sans-serif" font-size="14" lengthAdjust="spacing" textLength="112" x="343.5" y="129.1826">delete(id: Long)</text><text fill="#000000" font-family="sans-serif" font-size="14" lengthAdjust="spacing" textLength="350" x="343.5" y="145.4795">possibleEvents(data: TurnstileData): Set&lt;String&gt;</text></g><!--link TurnstileContext to TurnstileData--><g id="link_TurnstileContext_TurnstileData"><path codeLine="16" d="M256.39,343.06 C263.14,370.08 270.93,401.21 277.35,426.91 " fill="none" id="TurnstileContext-to-TurnstileData" style="stroke:#181818;stroke-width:1.0;stroke-dasharray:7.0,7.0;"/><polygon fill="#181818" points="278.62,431.98,280.311,422.2774,277.404,427.1301,272.5512,424.2231,278.62,431.98" style="stroke:#181818;stroke-width:1.0;"/></g><!--link TurnstileFSM to TurnstileContext--><g id="link_TurnstileFSM_TurnstileContext"><path codeLine="26" d="M178.8,136.52 C188.67,159.08 200.18,185.37 210.56,209.09 " fill="none" id="TurnstileFSM-to-TurnstileContext" style="stroke:#181818;stroke-width:1.0;stroke-dasharray:7.0,7.0;"/><polygon fill="#181818" points="212.62,213.8,212.6885,203.9514,210.6212,209.2169,205.3556,207.1495,212.62,213.8" style="stroke:#181818;stroke-width:1.0;"/></g><!--link TurnstileContext to TurnstilePersistentContext--><g id="link_TurnstileContext_TurnstilePersistentContext"><path codeLine="31" d="M345.06,278.5 C350.11,278.5 355.16,278.5 360.21,278.5 " fill="none" id="TurnstileContext-to-TurnstilePersistentContext" style="stroke:#181818;stroke-width:1.0;"/><polygon fill="none" points="360.32,271.5,380.32,278.5,360.32,285.5,360.32,271.5" style="stroke:#181818;stroke-width:1.0;"/></g><!--reverse link TurnstileRepository to PagingAndSortingRepository--><g id="link_TurnstileRepository_PagingAndSortingRepository"><path codeLine="47" d="M786.5,327.12 C786.5,364.59 786.5,415.71 786.5,448.17 " fill="none" id="TurnstileRepository-backto-PagingAndSortingRepository" style="stroke:#181818;stroke-width:1.0;"/><polygon fill="none" points="779.5,326.89,786.5,306.89,793.5,326.89,779.5,326.89" style="stroke:#181818;stroke-width:1.0;"/></g><!--link TurnstileRepository to TurnstileEntity--><g id="link_TurnstileRepository_TurnstileEntity"><path codeLine="48" d="M746.14,306.68 C703.16,335.62 633.8,382.32 578.02,419.89 " fill="none" id="TurnstileRepository-to-TurnstileEntity" style="stroke:#181818;stroke-width:1.0;stroke-dasharray:7.0,7.0;"/><polygon fill="#181818" points="573.69,422.81,583.3933,421.1228,577.8437,420.0266,578.9399,414.477,573.69,422.81" style="stroke:#181818;stroke-width:1.0;"/><text fill="#000000" font-family="sans-serif" font-size="13" lengthAdjust="spacing" textLength="60" x="648.5" y="386.0814">«realize»</text></g><!--link TurnstilePersistentContext to TurnstileRepository--><g id="link_TurnstilePersistentContext_TurnstileRepository"><path codeLine="50" d="M598.83,278.5 C630.72,278.5 665.22,278.5 695.82,278.5 " fill="none" id="TurnstilePersistentContext-to-TurnstileRepository" style="stroke:#181818;stroke-width:1.0;"/><polygon fill="#181818" points="701.1,278.5,692.1,274.5,696.1,278.5,692.1,282.5,701.1,278.5" style="stroke:#181818;stroke-width:1.0;"/><text fill="#000000" font-family="sans-serif" font-size="13" lengthAdjust="spacing" textLength="66" x="617" y="271.5814">repository</text></g><!--link TurnstilePersistentContext to TurnstileEntity--><g id="link_TurnstilePersistentContext_TurnstileEntity"><path codeLine="51" d="M489.5,302.83 C489.5,330.05 489.5,376.21 489.5,414.51 " fill="none" id="TurnstilePersistentContext-to-TurnstileEntity" style="stroke:#181818;stroke-width:1.0;"/><polygon fill="#181818" points="489.5,419.62,493.5,410.62,489.5,414.62,485.5,410.62,489.5,419.62" style="stroke:#181818;stroke-width:1.0;"/><text fill="#000000" font-family="sans-serif" font-size="13" lengthAdjust="spacing" textLength="38" x="490.5" y="386.0814">entity</text></g><!--reverse link TurnstileFSM to TurnstileService--><g id="link_TurnstileFSM_TurnstileService"><path codeLine="62" d="M307.23,80 C317.19,80 327.15,80 337.11,80 " fill="none" id="TurnstileFSM-backto-TurnstileService" style="stroke:#181818;stroke-width:1.0;stroke-dasharray:7.0,7.0;"/><polygon fill="#181818" points="302.02,80,311.02,84,307.02,80,311.02,76,302.02,80" style="stroke:#181818;stroke-width:1.0;"/></g><!--link TurnstileService to TurnstilePersistentContext--><g id="link_TurnstileService_TurnstilePersistentContext"><path codeLine="63" d="M507.87,153.05 C502.95,186.39 497.39,224.07 493.68,249.15 " fill="none" id="TurnstileService-to-TurnstilePersistentContext" style="stroke:#181818;stroke-width:1.0;stroke-dasharray:7.0,7.0;"/><polygon fill="#181818" points="492.92,254.3,498.1862,245.9773,493.6471,249.3531,490.2712,244.814,492.92,254.3" style="stroke:#181818;stroke-width:1.0;"/></g><!--reverse link TurnstileData to TurnstileEntity--><g id="link_TurnstileData_TurnstileEntity"><path codeLine="64" d="M359.79,480.5 C375.02,480.5 390.24,480.5 405.47,480.5 " fill="none" id="TurnstileData-backto-TurnstileEntity" style="stroke:#181818;stroke-width:1.0;stroke-dasharray:7.0,7.0;"/><polygon fill="#181818" points="354.63,480.5,363.63,484.5,359.63,480.5,363.63,476.5,354.63,480.5" style="stroke:#181818;stroke-width:1.0;"/></g><!--SRC=[dLHPQiCm4FttAVJfGfK362Fe2gKjX3eNKEo9AwfAGPeaNU_UyHelQWhDHv1cUNhpPiQvbjwprSuPZqh3jKJ9FYD6FrKaxC6Qihvecxy06IwjrI1DRNi5xsK92SlGAOhxZY9b4Dn6vd14lB9aUyCMDDyv1mOpb4Y9VL1zhmEabkurFal6b7eEOS_E_EvpW6IxiihC_SHundEn49EeA1zhT9izjjN0dcg9w_zEXI27FFXwvTaISjWZjRO7A3hqFk2ckbF6kkq4rH2Dg8qAQAkQrR04vvL7WZhsPwZ6t9z-SQvXWvm7q8zzNygILBWmHMOTqka9jjOhjEuzNPspUz4gjr6ckD0wtj80oRMcMLYsfxFccAv4HMX2-yQWmdUMfb0VXFZlh5Osj7TcOuDJ4PZZOo7qlEilDOMXSiEuBrxOW-4dH0dcZJhOb9pKZqgjFa28attYJfNFo4M8US9SuEK01WyGQ2IVjIG3jrSaLBlVH18XFD4bODmrAhpWnEBKH0mJn601Ez1pzlSg5g212FOycYsqtgjrkri-BYXuaajO6M3Q08jHmpi15ejgFKQzetKCnOaJUnXDPxr1dNwJVW00]--></g></svg>