<?xml version="1.0" encoding="UTF-8" standalone="no"?><svg xmlns="http://www.w3.org/2000/svg" xmlns:xlink="http://www.w3.org/1999/xlink" contentStyleType="text/css" height="507px" preserveAspectRatio="none" style="width:848px;height:507px;background:#FFFFFF;" version="1.1" viewBox="0 0 848 507" width="848px" zoomAndPan="magnify"><defs/><g><!--class TurnstileData--><g id="elem_TurnstileData"><rect codeLine="2" fill="#F1F1F1" height="56.2656" id="TurnstileData" rx="2.5" ry="2.5" style="stroke:#181818;stroke-width:0.5;" width="128" x="294" y="400"/><ellipse cx="309" cy="420.1328" fill="#ADD1B2" rx="11" ry="11" style="stroke:#181818;stroke-width:1.0;"/><path d="M311.9844,425.7734 Q311.4063,426.0703 310.7656,426.2109 Q310.125,426.3672 309.4219,426.3672 Q306.9063,426.3672 305.5781,424.7266 Q304.2656,423.0703 304.2656,419.9453 Q304.2656,416.8047 305.5781,415.1641 Q306.9063,413.5078 309.4219,413.5078 Q310.125,413.5078 310.7656,413.6641 Q311.4219,413.8047 311.9844,414.1016 L311.9844,416.8203 Q311.3438,416.2422 310.75,415.9766 Q310.1563,415.7109 309.5313,415.7109 Q308.1875,415.7109 307.5,416.7734 Q306.8125,417.8359 306.8125,419.9453 Q306.8125,422.0391 307.5,423.1172 Q308.1875,424.1797 309.5313,424.1797 Q310.1563,424.1797 310.75,423.9141 Q311.3438,423.6328 311.9844,423.0547 L311.9844,425.7734 Z " fill="#000000"/><text fill="#000000" font-family="sans-serif" font-size="12" font-style="italic" lengthAdjust="spacing" textLength="41" x="350.5" y="416.1387">«data»</text><text fill="#000000" font-family="sans-serif" font-size="14" lengthAdjust="spacing" textLength="96" x="323" y="431.9639">TurnstileData</text><line style="stroke:#181818;stroke-width:0.5;" x1="295" x2="421" y1="440.2656" y2="440.2656"/><line style="stroke:#181818;stroke-width:0.5;" x1="295" x2="421" y1="448.2656" y2="448.2656"/></g><!--class TurnstileService--><g id="elem_TurnstileService"><rect codeLine="5" fill="#F1F1F1" height="145.7813" id="TurnstileService" rx="2.5" ry="2.5" style="stroke:#181818;stroke-width:0.5;" width="362" x="479" y="355"/><ellipse cx="598.25" cy="371" fill="#ADD1B2" rx="11" ry="11" style="stroke:#181818;stroke-width:1.0;"/><path d="M601.2344,376.6406 Q600.6563,376.9375 600.0156,377.0781 Q599.375,377.2344 598.6719,377.2344 Q596.1563,377.2344 594.8281,375.5938 Q593.5156,373.9375 593.5156,370.8125 Q593.5156,367.6719 594.8281,366.0313 Q596.1563,364.375 598.6719,364.375 Q599.375,364.375 600.0156,364.5313 Q600.6719,364.6719 601.2344,364.9688 L601.2344,367.6875 Q600.5938,367.1094 600,366.8438 Q599.4063,366.5781 598.7813,366.5781 Q597.4375,366.5781 596.75,367.6406 Q596.0625,368.7031 596.0625,370.8125 Q596.0625,372.9063 596.75,373.9844 Q597.4375,375.0469 598.7813,375.0469 Q599.4063,375.0469 600,374.7813 Q600.5938,374.5 601.2344,373.9219 L601.2344,376.6406 Z " fill="#000000"/><text fill="#000000" font-family="sans-serif" font-size="14" lengthAdjust="spacing" textLength="115" x="618.75" y="375.8467">TurnstileService</text><line style="stroke:#181818;stroke-width:0.5;" x1="480" x2="840" y1="387" y2="387"/><line style="stroke:#181818;stroke-width:0.5;" x1="480" x2="840" y1="395" y2="395"/><text fill="#000000" font-family="sans-serif" font-size="14" lengthAdjust="spacing" textLength="161" x="485" y="411.9951">create(): TurnstileData</text><text fill="#000000" font-family="sans-serif" font-size="14" lengthAdjust="spacing" textLength="195" x="485" y="428.292">get(id: Long): TurnstileData</text><text fill="#000000" font-family="sans-serif" font-size="14" lengthAdjust="spacing" textLength="336" x="485" y="444.5889">list(pageable: Pageable): Page&lt;TurnstileData&gt;</text><text fill="#000000" font-family="sans-serif" font-size="14" lengthAdjust="spacing" textLength="311" x="485" y="460.8857">event(id: Long, event: String): TurnstileData</text><text fill="#000000" font-family="sans-serif" font-size="14" lengthAdjust="spacing" textLength="112" x="485" y="477.1826">delete(id: Long)</text><text fill="#000000" font-family="sans-serif" font-size="14" lengthAdjust="spacing" textLength="350" x="485" y="493.4795">possibleEvents(data: TurnstileData): Set&lt;String&gt;</text></g><!--class TurnstileRepresentationModelAssembler--><g id="elem_TurnstileRepresentationModelAssembler"><rect codeLine="15" fill="#F1F1F1" height="80.5938" id="TurnstileRepresentationModelAssembler" rx="2.5" ry="2.5" style="stroke:#181818;stroke-width:0.5;" width="594" x="7" y="213"/><ellipse cx="155.25" cy="229" fill="#ADD1B2" rx="11" ry="11" style="stroke:#181818;stroke-width:1.0;"/><path d="M158.2344,234.6406 Q157.6563,234.9375 157.0156,235.0781 Q156.375,235.2344 155.6719,235.2344 Q153.1563,235.2344 151.8281,233.5938 Q150.5156,231.9375 150.5156,228.8125 Q150.5156,225.6719 151.8281,224.0313 Q153.1563,222.375 155.6719,222.375 Q156.375,222.375 157.0156,222.5313 Q157.6719,222.6719 158.2344,222.9688 L158.2344,225.6875 Q157.5938,225.1094 157,224.8438 Q156.4063,224.5781 155.7813,224.5781 Q154.4375,224.5781 153.75,225.6406 Q153.0625,226.7031 153.0625,228.8125 Q153.0625,230.9063 153.75,231.9844 Q154.4375,233.0469 155.7813,233.0469 Q156.4063,233.0469 157,232.7813 Q157.5938,232.5 158.2344,231.9219 L158.2344,234.6406 Z " fill="#000000"/><text fill="#000000" font-family="sans-serif" font-size="14" lengthAdjust="spacing" textLength="289" x="175.75" y="233.8467">TurnstileRepresentationModelAssembler</text><line style="stroke:#181818;stroke-width:0.5;" x1="8" x2="600" y1="245" y2="245"/><line style="stroke:#181818;stroke-width:0.5;" x1="8" x2="600" y1="253" y2="253"/><text fill="#000000" font-family="sans-serif" font-size="14" lengthAdjust="spacing" textLength="416" x="13" y="269.9951">toModel(item: TurnstileData): EntityModel&lt;TurnstileData&gt;</text><text fill="#000000" font-family="sans-serif" font-size="14" lengthAdjust="spacing" textLength="582" x="13" y="286.292">toPage(page: Page&lt;TurnstileData&gt;): PagedModel&lt;EntityModel&lt;TurnstileData&gt;&gt;</text></g><!--class TurnstileController--><g id="elem_TurnstileController"><rect codeLine="21" fill="#F1F1F1" height="129.4844" id="TurnstileController" rx="2.5" ry="2.5" style="stroke:#181818;stroke-width:0.5;" width="640" x="167" y="7"/><ellipse cx="416.25" cy="23" fill="#ADD1B2" rx="11" ry="11" style="stroke:#181818;stroke-width:1.0;"/><path d="M419.2344,28.6406 Q418.6563,28.9375 418.0156,29.0781 Q417.375,29.2344 416.6719,29.2344 Q414.1563,29.2344 412.8281,27.5938 Q411.5156,25.9375 411.5156,22.8125 Q411.5156,19.6719 412.8281,18.0313 Q414.1563,16.375 416.6719,16.375 Q417.375,16.375 418.0156,16.5313 Q418.6719,16.6719 419.2344,16.9688 L419.2344,19.6875 Q418.5938,19.1094 418,18.8438 Q417.4063,18.5781 416.7813,18.5781 Q415.4375,18.5781 414.75,19.6406 Q414.0625,20.7031 414.0625,22.8125 Q414.0625,24.9063 414.75,25.9844 Q415.4375,27.0469 416.7813,27.0469 Q417.4063,27.0469 418,26.7813 Q418.5938,26.5 419.2344,25.9219 L419.2344,28.6406 Z " fill="#000000"/><text fill="#000000" font-family="sans-serif" font-size="14" lengthAdjust="spacing" textLength="133" x="436.75" y="27.8467">TurnstileController</text><line style="stroke:#181818;stroke-width:0.5;" x1="168" x2="806" y1="39" y2="39"/><line style="stroke:#181818;stroke-width:0.5;" x1="168" x2="806" y1="47" y2="47"/><text fill="#000000" font-family="sans-serif" font-size="14" lengthAdjust="spacing" textLength="628" x="173" y="63.9951">list(pageable: Pageable): ResponseEntity&lt;PagedModel&lt;EntityModel&lt;TurnstileData&gt;&gt;&gt;</text><text fill="#000000" font-family="sans-serif" font-size="14" lengthAdjust="spacing" textLength="401" x="173" y="80.292">create(): ResponseEntity&lt;EntityModel&lt;TurnstileData&gt;&gt;</text><text fill="#000000" font-family="sans-serif" font-size="14" lengthAdjust="spacing" textLength="435" x="173" y="96.5889">get(id: Long): ResponseEntity&lt;EntityModel&lt;TurnstileData&gt;&gt;</text><text fill="#000000" font-family="sans-serif" font-size="14" lengthAdjust="spacing" textLength="551" x="173" y="112.8857">event(id: Long, event: String): ResponseEntity&lt;EntityModel&lt;TurnstileData&gt;&gt;</text><text fill="#000000" font-family="sans-serif" font-size="14" lengthAdjust="spacing" textLength="430" x="173" y="129.1826">delete(@PathVariable("id") id: Long): ResponseEntity&lt;Void&gt;</text></g><!--reverse link TurnstileData to TurnstileService--><g id="link_TurnstileData_TurnstileService"><path codeLine="13" d="M427.6,428 C444.71,428 461.82,428 478.93,428 " fill="none" id="TurnstileData-backto-TurnstileService" style="stroke:#181818;stroke-width:1.0;stroke-dasharray:7.0,7.0;"/><polygon fill="#181818" points="422.29,428,431.29,432,427.29,428,431.29,424,422.29,428" style="stroke:#181818;stroke-width:1.0;"/></g><!--link TurnstileRepresentationModelAssembler to TurnstileData--><g id="link_TurnstileRepresentationModelAssembler_TurnstileData"><path codeLine="19" d="M316.39,294.07 C325.98,324.73 339.1,366.64 348.03,395.15 " fill="none" id="TurnstileRepresentationModelAssembler-to-TurnstileData" style="stroke:#181818;stroke-width:1.0;stroke-dasharray:7.0,7.0;"/><polygon fill="#181818" points="349.53,399.96,350.6468,390.1747,348.0305,395.1901,343.015,392.5739,349.53,399.96" style="stroke:#181818;stroke-width:1.0;"/></g><!--link TurnstileController to TurnstileService--><g id="link_TurnstileController_TurnstileService"><path codeLine="29" d="M560.51,136.19 C582.07,158.44 603.67,184.93 618,213 C639.59,255.29 650.11,307.49 655.22,349.76 " fill="none" id="TurnstileController-to-TurnstileService" style="stroke:#181818;stroke-width:1.0;"/><polygon fill="#181818" points="655.82,354.86,658.7363,345.4528,655.2333,349.8945,650.7916,346.3915,655.82,354.86" style="stroke:#181818;stroke-width:1.0;"/><text fill="#000000" font-family="sans-serif" font-size="13" lengthAdjust="spacing" textLength="102" x="646" y="258.0814">turnstileService</text></g><!--link TurnstileController to TurnstileRepresentationModelAssembler--><g id="link_TurnstileController_TurnstileRepresentationModelAssembler"><path codeLine="30" d="M422.22,136.21 C397.63,160.4 370.22,187.37 347.99,209.24 " fill="none" id="TurnstileController-to-TurnstileRepresentationModelAssembler" style="stroke:#181818;stroke-width:1.0;"/><polygon fill="#181818" points="344.18,212.98,353.4076,209.5375,347.7511,209.4804,347.8082,203.8238,344.18,212.98" style="stroke:#181818;stroke-width:1.0;"/><text fill="#000000" font-family="sans-serif" font-size="13" lengthAdjust="spacing" textLength="164" x="392" y="179.0814">representationAssembler</text></g><!--SRC=[bLFBQiCm4BphAqHEDZJ-0654IvjR2Y4kkQlMrXKeaf6sWLBwxvLba-1tuulbtPtPsT6wrC9x-lRbZ4UbuKMWe7akmujp-aD-2Idx5GMuYoeXv6XuIWS28KbPdoBcAi14IKRtrbIJ1LfvJ6fHWNZNmEYXEwNjCUy1U4J01SoDzA7zPhH0fsPwID0G15vrn61jlLUXqww1-wIPTe0DN0LWtXBpOCDe_YpJy85PnWTDXtuTeNRWGn-1offN6mGzUG_dqDvr9gADuKGXdCSwTWOLViUAAKlGDcP56oTzwzoKBS4yMM_8HT7hCpzRWyxgsuJpDtq4NrlZeHMM_qyg7-pUW6Hfo8d5l1EzjeDtqdKB-dWG-7aIJZM-91ibDocTrtYoIZONHgOitsxvw7Tb50UHTUZI4Z3gUjbhWf0_]--></g></svg>