<?xml version="1.0" encoding="UTF-8" standalone="no"?><svg xmlns="http://www.w3.org/2000/svg" xmlns:xlink="http://www.w3.org/1999/xlink" contentStyleType="text/css" height="483px" preserveAspectRatio="none" style="width:921px;height:483px;background:#FFFFFF;" version="1.1" viewBox="0 0 921 483" width="921px" zoomAndPan="magnify"><defs/><g><!--class StateMachineDefinition--><g id="elem_StateMachineDefinition"><rect codeLine="2" fill="#F1F1F1" height="48" id="StateMachineDefinition" rx="2.5" ry="2.5" style="stroke:#181818;stroke-width:0.5;" width="274" x="344.5" y="399.5"/><ellipse cx="359.5" cy="415.5" fill="#B4A7E5" rx="11" ry="11" style="stroke:#181818;stroke-width:1.0;"/><path d="M355.4219,411.25 L355.4219,409.0938 L362.8125,409.0938 L362.8125,411.25 L360.3438,411.25 L360.3438,419.3438 L362.8125,419.3438 L362.8125,421.5 L355.4219,421.5 L355.4219,419.3438 L357.8906,419.3438 L357.8906,411.25 L355.4219,411.25 Z " fill="#000000"/><text fill="#000000" font-family="sans-serif" font-size="14" font-style="italic" lengthAdjust="spacing" textLength="166" x="373.5" y="420.3467">StateMachineDefinition</text><rect fill="#FFFFFF" height="15.9688" style="stroke:#181818;stroke-width:1.0;stroke-dasharray:2.0,2.0;" width="74" x="547.5" y="396.5"/><text fill="#000000" font-family="sans-serif" font-size="12" font-style="italic" lengthAdjust="spacing" textLength="72" x="548.5" y="408.6387">S, E, C, A, R</text><line style="stroke:#181818;stroke-width:0.5;" x1="345.5" x2="617.5" y1="431.5" y2="431.5"/><line style="stroke:#181818;stroke-width:0.5;" x1="345.5" x2="617.5" y1="439.5" y2="439.5"/></g><!--class StateMachineInstance--><g id="elem_StateMachineInstance"><rect codeLine="5" fill="#F1F1F1" height="48" id="StateMachineInstance" rx="2.5" ry="2.5" style="stroke:#181818;stroke-width:0.5;" width="265" x="7" y="205.5"/><ellipse cx="22" cy="221.5" fill="#B4A7E5" rx="11" ry="11" style="stroke:#181818;stroke-width:1.0;"/><path d="M17.9219,217.25 L17.9219,215.0938 L25.3125,215.0938 L25.3125,217.25 L22.8438,217.25 L22.8438,225.3438 L25.3125,225.3438 L25.3125,227.5 L17.9219,227.5 L17.9219,225.3438 L20.3906,225.3438 L20.3906,217.25 L17.9219,217.25 Z " fill="#000000"/><text fill="#000000" font-family="sans-serif" font-size="14" font-style="italic" lengthAdjust="spacing" textLength="157" x="36" y="226.3467">StateMachineInstance</text><rect fill="#FFFFFF" height="15.9688" style="stroke:#181818;stroke-width:1.0;stroke-dasharray:2.0,2.0;" width="74" x="201" y="202.5"/><text fill="#000000" font-family="sans-serif" font-size="12" font-style="italic" lengthAdjust="spacing" textLength="72" x="202" y="214.6387">S, E, C, A, R</text><line style="stroke:#181818;stroke-width:0.5;" x1="8" x2="271" y1="237.5" y2="237.5"/><line style="stroke:#181818;stroke-width:0.5;" x1="8" x2="271" y1="245.5" y2="245.5"/></g><!--class TurnstileEvent--><g id="elem_TurnstileEvent"><rect codeLine="8" fill="#F1F1F1" height="80.5938" id="TurnstileEvent" rx="2.5" ry="2.5" style="stroke:#181818;stroke-width:0.5;" width="134" x="498.5" y="7"/><ellipse cx="513.5" cy="23" fill="#EB937F" rx="11" ry="11" style="stroke:#181818;stroke-width:1.0;"/><path d="M517.625,29 L509.8906,29 L509.8906,16.5938 L517.625,16.5938 L517.625,18.75 L512.3438,18.75 L512.3438,21.4375 L517.125,21.4375 L517.125,23.5938 L512.3438,23.5938 L512.3438,26.8438 L517.625,26.8438 L517.625,29 Z " fill="#000000"/><text fill="#000000" font-family="sans-serif" font-size="14" lengthAdjust="spacing" textLength="102" x="527.5" y="27.8467">TurnstileEvent</text><line style="stroke:#181818;stroke-width:0.5;" x1="499.5" x2="631.5" y1="39" y2="39"/><text fill="#000000" font-family="sans-serif" font-size="14" lengthAdjust="spacing" textLength="35" x="504.5" y="55.9951">COIN</text><text fill="#000000" font-family="sans-serif" font-size="14" lengthAdjust="spacing" textLength="36" x="504.5" y="72.292">PASS</text><line style="stroke:#181818;stroke-width:0.5;" x1="499.5" x2="631.5" y1="79.5938" y2="79.5938"/></g><!--class TurnstileState--><g id="elem_TurnstileState"><rect codeLine="13" fill="#F1F1F1" height="80.5938" id="TurnstileState" rx="2.5" ry="2.5" style="stroke:#181818;stroke-width:0.5;" width="131" x="332" y="7"/><ellipse cx="347" cy="23" fill="#EB937F" rx="11" ry="11" style="stroke:#181818;stroke-width:1.0;"/><path d="M351.125,29 L343.3906,29 L343.3906,16.5938 L351.125,16.5938 L351.125,18.75 L345.8438,18.75 L345.8438,21.4375 L350.625,21.4375 L350.625,23.5938 L345.8438,23.5938 L345.8438,26.8438 L351.125,26.8438 L351.125,29 Z " fill="#000000"/><text fill="#000000" font-family="sans-serif" font-size="14" lengthAdjust="spacing" textLength="99" x="361" y="27.8467">TurnstileState</text><line style="stroke:#181818;stroke-width:0.5;" x1="333" x2="462" y1="39" y2="39"/><text fill="#000000" font-family="sans-serif" font-size="14" lengthAdjust="spacing" textLength="58" x="338" y="55.9951">LOCKED</text><text fill="#000000" font-family="sans-serif" font-size="14" lengthAdjust="spacing" textLength="78" x="338" y="72.292">UNLOCKED</text><line style="stroke:#181818;stroke-width:0.5;" x1="333" x2="462" y1="79.5938" y2="79.5938"/></g><!--class TurnstileData--><g id="elem_TurnstileData"><rect codeLine="17" fill="#F1F1F1" height="105.1563" id="TurnstileData" rx="2.5" ry="2.5" style="stroke:#181818;stroke-width:0.5;" width="128" x="745.5" y="371"/><ellipse cx="760.5" cy="391.1328" fill="#ADD1B2" rx="11" ry="11" style="stroke:#181818;stroke-width:1.0;"/><path d="M763.4844,396.7734 Q762.9063,397.0703 762.2656,397.2109 Q761.625,397.3672 760.9219,397.3672 Q758.4063,397.3672 757.0781,395.7266 Q755.7656,394.0703 755.7656,390.9453 Q755.7656,387.8047 757.0781,386.1641 Q758.4063,384.5078 760.9219,384.5078 Q761.625,384.5078 762.2656,384.6641 Q762.9219,384.8047 763.4844,385.1016 L763.4844,387.8203 Q762.8438,387.2422 762.25,386.9766 Q761.6563,386.7109 761.0313,386.7109 Q759.6875,386.7109 759,387.7734 Q758.3125,388.8359 758.3125,390.9453 Q758.3125,393.0391 759,394.1172 Q759.6875,395.1797 761.0313,395.1797 Q761.6563,395.1797 762.25,394.9141 Q762.8438,394.6328 763.4844,394.0547 L763.4844,396.7734 Z " fill="#000000"/><text fill="#000000" font-family="sans-serif" font-size="12" font-style="italic" lengthAdjust="spacing" textLength="41" x="802" y="387.1387">«data»</text><text fill="#000000" font-family="sans-serif" font-size="14" lengthAdjust="spacing" textLength="96" x="774.5" y="402.9639">TurnstileData</text><line style="stroke:#181818;stroke-width:0.5;" x1="746.5" x2="872.5" y1="411.2656" y2="411.2656"/><text fill="#000000" font-family="sans-serif" font-size="14" lengthAdjust="spacing" textLength="57" x="751.5" y="428.2607">id: Long</text><text fill="#000000" font-family="sans-serif" font-size="14" lengthAdjust="spacing" textLength="115" x="751.5" y="444.5576">locked: Boolean</text><text fill="#000000" font-family="sans-serif" font-size="14" lengthAdjust="spacing" textLength="115" x="751.5" y="460.8545">message: String</text><line style="stroke:#181818;stroke-width:0.5;" x1="746.5" x2="872.5" y1="468.1563" y2="468.1563"/></g><!--class TurnstileContext--><g id="elem_TurnstileContext"><rect codeLine="23" fill="#F1F1F1" height="129.4844" id="TurnstileContext" rx="2.5" ry="2.5" style="stroke:#181818;stroke-width:0.5;" width="209" x="705" y="165"/><ellipse cx="747" cy="181" fill="#B4A7E5" rx="11" ry="11" style="stroke:#181818;stroke-width:1.0;"/><path d="M742.9219,176.75 L742.9219,174.5938 L750.3125,174.5938 L750.3125,176.75 L747.8438,176.75 L747.8438,184.8438 L750.3125,184.8438 L750.3125,187 L742.9219,187 L742.9219,184.8438 L745.3906,184.8438 L745.3906,176.75 L742.9219,176.75 Z " fill="#000000"/><text fill="#000000" font-family="sans-serif" font-size="14" font-style="italic" lengthAdjust="spacing" textLength="117" x="767" y="185.8467">TurnstileContext</text><line style="stroke:#181818;stroke-width:0.5;" x1="706" x2="913" y1="197" y2="197"/><text fill="#000000" font-family="sans-serif" font-size="14" lengthAdjust="spacing" textLength="197" x="711" y="213.9951">currentState: TurnstileState</text><line style="stroke:#181818;stroke-width:0.5;" x1="706" x2="913" y1="221.2969" y2="221.2969"/><text fill="#000000" font-family="sans-serif" font-size="14" lengthAdjust="spacing" textLength="157" x="711" y="238.292">alarm(): TurnstileData</text><text fill="#000000" font-family="sans-serif" font-size="14" lengthAdjust="spacing" textLength="144" x="711" y="254.5889">lock(): TurnstileData</text><text fill="#000000" font-family="sans-serif" font-size="14" lengthAdjust="spacing" textLength="162" x="711" y="270.8857">unlock(): TurnstileData</text><text fill="#000000" font-family="sans-serif" font-size="14" lengthAdjust="spacing" textLength="191" x="711" y="287.1826">returnCoin(): TurnstileData</text></g><!--class TurnstileFSM--><g id="elem_TurnstileFSM"><rect codeLine="33" fill="#F1F1F1" height="113.1875" id="TurnstileFSM" rx="2.5" ry="2.5" style="stroke:#181818;stroke-width:0.5;" width="295" x="334" y="173"/><ellipse cx="431.75" cy="189" fill="#ADD1B2" rx="11" ry="11" style="stroke:#181818;stroke-width:1.0;"/><path d="M434.7344,194.6406 Q434.1563,194.9375 433.5156,195.0781 Q432.875,195.2344 432.1719,195.2344 Q429.6563,195.2344 428.3281,193.5938 Q427.0156,191.9375 427.0156,188.8125 Q427.0156,185.6719 428.3281,184.0313 Q429.6563,182.375 432.1719,182.375 Q432.875,182.375 433.5156,182.5313 Q434.1719,182.6719 434.7344,182.9688 L434.7344,185.6875 Q434.0938,185.1094 433.5,184.8438 Q432.9063,184.5781 432.2813,184.5781 Q430.9375,184.5781 430.25,185.6406 Q429.5625,186.7031 429.5625,188.8125 Q429.5625,190.9063 430.25,191.9844 Q430.9375,193.0469 432.2813,193.0469 Q432.9063,193.0469 433.5,192.7813 Q434.0938,192.5 434.7344,191.9219 L434.7344,194.6406 Z " fill="#000000"/><text fill="#000000" font-family="sans-serif" font-size="14" lengthAdjust="spacing" textLength="91" x="452.25" y="193.8467">TurnstileFSM</text><line style="stroke:#181818;stroke-width:0.5;" x1="335" x2="628" y1="205" y2="205"/><line style="stroke:#181818;stroke-width:0.5;" x1="335" x2="628" y1="213" y2="213"/><text fill="#000000" font-family="sans-serif" font-size="14" lengthAdjust="spacing" textLength="246" x="340" y="229.9951">event(event: String): TurnstileData</text><text fill="#000000" font-family="sans-serif" font-size="14" lengthAdjust="spacing" textLength="145" x="340" y="246.292">coin(): TurnstileData</text><text fill="#000000" font-family="sans-serif" font-size="14" lengthAdjust="spacing" textLength="147" x="340" y="262.5889">pass(): TurnstileData</text><text fill="#000000" font-family="sans-serif" font-size="14" lengthAdjust="spacing" textLength="283" x="340" y="278.8857">allowed(event: TurnstileEvent): boolean</text></g><!--link TurnstileContext to TurnstileData--><g id="link_TurnstileContext_TurnstileData"><path codeLine="31" d="M809.5,294.17 C809.5,317.3 809.5,343.28 809.5,365.78 " fill="none" id="TurnstileContext-to-TurnstileData" style="stroke:#181818;stroke-width:1.0;stroke-dasharray:7.0,7.0;"/><polygon fill="#181818" points="809.5,370.82,813.5,361.82,809.5,365.82,805.5,361.82,809.5,370.82" style="stroke:#181818;stroke-width:1.0;"/></g><!--reverse link TurnstileEvent to TurnstileFSM--><g id="link_TurnstileEvent_TurnstileFSM"><path codeLine="40" d="M544.85,92.74 C533.59,116.87 519.54,146.98 507.54,172.7 " fill="none" id="TurnstileEvent-backto-TurnstileFSM" style="stroke:#181818;stroke-width:1.0;stroke-dasharray:7.0,7.0;"/><polygon fill="#181818" points="547.07,88,539.6382,94.4628,544.9548,92.5306,546.8871,97.8472,547.07,88" style="stroke:#181818;stroke-width:1.0;"/><text fill="#000000" font-family="sans-serif" font-size="13" lengthAdjust="spacing" textLength="39" x="532.5" y="131.0814">«use»</text></g><!--reverse link TurnstileState to TurnstileFSM--><g id="link_TurnstileState_TurnstileFSM"><path codeLine="41" d="M418.15,92.74 C429.41,116.87 443.46,146.98 455.46,172.7 " fill="none" id="TurnstileState-backto-TurnstileFSM" style="stroke:#181818;stroke-width:1.0;stroke-dasharray:7.0,7.0;"/><polygon fill="#181818" points="415.93,88,416.1129,97.8472,418.0452,92.5306,423.3618,94.4628,415.93,88" style="stroke:#181818;stroke-width:1.0;"/><text fill="#000000" font-family="sans-serif" font-size="13" lengthAdjust="spacing" textLength="39" x="438.5" y="131.0814">«use»</text></g><!--link TurnstileFSM to TurnstileContext--><g id="link_TurnstileFSM_TurnstileContext"><path codeLine="42" d="M629.19,229.5 C652.9,229.5 677.07,229.5 699.69,229.5 " fill="none" id="TurnstileFSM-to-TurnstileContext" style="stroke:#181818;stroke-width:1.0;stroke-dasharray:7.0,7.0;"/><polygon fill="#181818" points="704.8,229.5,695.8,225.5,699.8,229.5,695.8,233.5,704.8,229.5" style="stroke:#181818;stroke-width:1.0;"/><text fill="#000000" font-family="sans-serif" font-size="13" lengthAdjust="spacing" textLength="39" x="647.5" y="222.5814">«use»</text></g><!--link TurnstileFSM to StateMachineDefinition--><g id="link_TurnstileFSM_StateMachineDefinition"><path codeLine="43" d="M481.5,286.03 C481.5,321.48 481.5,365.94 481.5,394.29 " fill="none" id="TurnstileFSM-to-StateMachineDefinition" style="stroke:#181818;stroke-width:1.0;"/><polygon fill="#181818" points="481.5,399.39,485.5,390.39,481.5,394.39,477.5,390.39,481.5,399.39" style="stroke:#181818;stroke-width:1.0;"/><text fill="#000000" font-family="sans-serif" font-size="13" lengthAdjust="spacing" textLength="118" x="482.5" y="337.0814">definition «static»</text></g><!--reverse link StateMachineInstance to TurnstileFSM--><g id="link_StateMachineInstance_TurnstileFSM"><path codeLine="44" d="M277.44,229.5 C295.99,229.5 315.09,229.5 333.81,229.5 " fill="none" id="StateMachineInstance-backto-TurnstileFSM" style="stroke:#181818;stroke-width:1.0;"/><polygon fill="#181818" points="272.22,229.5,281.22,233.5,277.22,229.5,281.22,225.5,272.22,229.5" style="stroke:#181818;stroke-width:1.0;"/><text fill="#000000" font-family="sans-serif" font-size="13" lengthAdjust="spacing" textLength="25" x="290.5" y="222.5814">fsm</text></g><!--SRC=[VLFRRiCW37tFL_3OIMa_88gGkZIJglKoBTi7CEAqQ0Gg8DkagVy-bv6kJUZoG8nzZdriG2W7fc4SIEMOWpNZUw5W0OrGmWcjyYebPKgAbCnJyap9Tt9C4X4bBPLrJ768Ka1rBNdf36A4XF83bCC0mQ_OBZVUU9fNrHZgAmJeQbiybWjllcx2vfXmoQpz8ooOOoJFQ_nH6eYYpiXAgvtVICtV0HttMajWoljQi9Rj8CE6Z43SLPFdr8L6trSld7V6O1jUO3OGx05CCjDExh9hRMSDyKYdRiSCEFGLMgXn71MFTCvcT80Q3kkXMeTku7Ga4x_sKuXguD7gfyW1CySZJ4hz2NMV_VeQ8ECjdCHb3oTbi-vmsK7vIy_ppWAb_qB3eSIXHkpsxX8TvfL5uTCflV4sCbAVRIo5jzy9Fg9BQDmWHVzICjBOzWS0]--></g></svg>